HIERARCHY
ROOT Hip
{
    OFFSET 0.0 0.0 0.0
    CHANNELS 6 Xposition Yposition Zposition Zrotation Xrotation Yrotation
    JOINT RightHip
    {
        OFFSET -9.770221710205078 0.0 0.0
        CHANNELS 3 Zrotation Xrotation Yrotation
        JOINT RightKnee
        {
            OFFSET 0.0 0.0 -39.052398681640625
            CHANNELS 3 Zrotation Xrotation Yrotation
            JOINT RightAnkle
            {
                OFFSET 0.0 0.0 -38.532501220703125
                CHANNELS 3 Zrotation Xrotation Yrotation
                End Site
                {
                    OFFSET 0.0 -15.413002014160156 0.0
                }
            }
        }
    }
    JOINT LeftHip
    {
        OFFSET 9.770221710205078 0.0 0.0
        CHANNELS 3 Zrotation Xrotation Yrotation
        JOINT LeftKnee
        {
            OFFSET 0.0 0.0 -39.052398681640625
            CHANNELS 3 Zrotation Xrotation Yrotation
            JOINT LeftAnkle
            {
                OFFSET 0.0 0.0 -38.532501220703125
                CHANNELS 3 Zrotation Xrotation Yrotation
                End Site
                {
                    OFFSET 0.0 -15.413002014160156 0.0
                }
            }
        }
    }
    JOINT Spine
    {
        OFFSET 0.0 0.0 23.71104621887207
        CHANNELS 3 Zrotation Xrotation Yrotation
        JOINT Thorax
        {
            OFFSET 0.0 0.0 25.15134620666504
            CHANNELS 3 Zrotation Xrotation Yrotation
            JOINT Neck
            {
                OFFSET 0.0 0.0 13.506202697753906
                CHANNELS 3 Zrotation Xrotation Yrotation
                End Site
                {
                    OFFSET 0.0 0.0 5.402481555938721
                }
            }
            JOINT LeftShoulder
            {
                OFFSET 12.759206771850586 0.0 0.0
                CHANNELS 3 Zrotation Xrotation Yrotation
                JOINT LeftElbow
                {
                    OFFSET 28.929279327392578 0.0 0.0
                    CHANNELS 3 Zrotation Xrotation Yrotation
                    JOINT LeftWrist
                    {
                        OFFSET 23.678314208984375 0.0 0.0
                        CHANNELS 3 Zrotation Xrotation Yrotation
                        End Site
                        {
                            OFFSET 9.47132682800293 0.0 0.0
                        }
                    }
                }
            }
            JOINT RightShoulder
            {
                OFFSET -12.759206771850586 0.0 0.0
                CHANNELS 3 Zrotation Xrotation Yrotation
                JOINT RightElbow
                {
                    OFFSET -28.929279327392578 0.0 0.0
                    CHANNELS 3 Zrotation Xrotation Yrotation
                    JOINT RightWrist
                    {
                        OFFSET -23.678314208984375 0.0 0.0
                        CHANNELS 3 Zrotation Xrotation Yrotation
                        End Site
                        {
                            OFFSET -9.47132682800293 0.0 0.0
                        }
                    }
                }
            }
        }
    }
}
MOTION
Frames: 10
Frame Time: 0.03333333333333333
6.477466376964003e-05 81.04818725585938 -0.0010455803712829947 -79.52370381075583 -36.71823989639549 -90.69053613485862 -0.1153865577898091 -24.45010925663086 7.447858365606252 2.693379677997501 19.091890050358653 -5.406356518640508 -3.180554681463516e-15 0.0 0.0 -0.0891343812736234 -21.4894982831461 -4.920782244306955 -1.382416292551968 16.410659913402498 2.147414345347132 8.827812596100317e-32 1.5902773407317584e-15 -6.3611093629270335e-15 0.024040417175719375 5.727000309646775 -3.1863339976467717 -3.414567044322007 5.984596125162558e-07 8.164959982105756e-07 2.9341625764045536 -19.778798593172958 -2.1291454857282015 -51.78842803407243 0.16132018084829525 68.90065813413206 -47.33188730684291 -1.2258304505231067e-06 4.162373136135055e-07 0.0 0.0 -1.5902773407317582e-15 7.064243820806782 -3.7423036441459194 -66.25601885182638 42.03230042080388 -4.536833298837124e-07 -2.8907202820079827e-06 -1.590277340731758e-15 -1.590277340731758e-15 3.180554681463516e-15
7.76555243646726e-05 81.0481948852539 -0.0010374722769483924 -77.94991174023988 -36.09989478308658 -90.22856248613232 -0.06888077446777106 -26.29831447568662 7.774560657838183 2.8295623413980753 19.502231512236555 -4.876194056223143 -6.361109362927035e-15 6.361109362927035e-15 3.1805546814635183e-15 -0.04912702057264481 -23.630949037166932 -4.603514195170575 -1.3994502975464298 17.289004663379853 1.9361628229476184 -3.1805546814635168e-15 4.770832022195275e-15 3.1805546814635168e-15 0.01245546338550958 5.664691373019887 -3.5729146322325294 -2.97556419563994 -1.3103421997397817e-06 -3.386513820148459e-06 6.043243499874347 -20.7346415118068 -0.9688526963635864 -52.333291266921336 -0.9723109857794614 67.3528272688591 -49.89956069225093 -6.777611864691625e-07 -8.423787745109862e-07 6.3611093629270335e-15 3.1805546814635168e-15 -1.5902773407317584e-15 7.912452117067454 -5.754081933365479 -64.16401448175996 42.81458252349458 -2.1633809603932176e-06 2.92296703441371e-06 -7.951386703658792e-15 -4.770832022195276e-15 6.3611093629270335e-15
8.750439155846834e-05 81.04835510253906 -0.0011246571084484458 -76.15726294690926 -34.295199677062215 -90.10941554845603 0.2078865608547614 -29.157538752147943 9.184938208312765 3.2871813712773372 20.401013895760123 -5.586460905220328 -3.1805546814635168e-15 1.5902773407317584e-15 -3.1805546814635168e-15 0.19200738000639736 -25.747971872804534 -3.51901823731785 -1.308826068055336 18.225561313977323 1.222013594373999 3.1805546814635168e-15 -4.770832022195275e-15 -3.1805546814635168e-15 -0.04024476554692084 5.955088481914329 -3.957364625701484 -2.1726814180486906 -2.270482906709285e-06 1.663722186671672e-06 9.703325481783077 -23.178921445864333 1.1637453505374984 -52.70829962966037 -3.0640763634647956 65.72515188320149 -52.427377486176326 1.2627316978816778e-06 -1.0318251983077982e-06 -1.3241718894150476e-31 -3.1805546814635168e-15 -4.770832022195275e-15 6.519390569369629 -8.471804359746466 -62.50597722891236 43.6606553998565 3.513622684892226e-06 6.050867147620489e-07 -9.541664044390549e-15 0.0 0.0
0.00019296316895633936 81.04844665527344 -0.0010951993754133582 -75.25324494964896 -34.4108599113187 -90.24863664090356 0.41749581910371947 -30.951242995854578 9.743842455511645 3.55776310726568 21.528829230728864 -5.414987147245163 -6.3611093629270335e-15 7.951386703658792e-15 -3.1805546814635164e-15 0.37441815492280317 -27.478989909049155 -3.357056701180496 -1.4916013275350997 19.61849226122802 2.4724886426498176 -6.3611093629270335e-15 0.0 0.0 -0.07206521671064876 5.808022495091846 -3.6772640364051328 -2.671547455395985 3.1093792120133717e-07 4.241688274053212e-06 8.621922089713248 -23.62409542604845 2.1569793987793324 -53.272378772584474 -4.5181075885525175 64.10406957462294 -55.494834473025804 -1.5265211829035155e-06 -3.1311021030165308e-06 -6.361109362927035e-15 3.1805546814635176e-15 -3.1805546814635176e-15 6.796145985919691 -10.078691703044804 -60.99159387421346 45.18929213308626 2.2913082648275977e-06 -7.148888391299245e-07 4.770832022195277e-15 0.0 0.0
0.0003072218387387693 81.04869842529297 -0.001093552098609507 -73.82344044199787 -33.6300467192275 -90.3217175219796 0.9802291020676887 -33.20681779260796 10.652105443409141 3.8102946707368175 23.06156086442763 -5.3815209868081855 0.0 -6.3611093629270335e-15 0.0 0.8538843929249612 -29.325796508651035 -2.4894685986627616 -1.6808894728644261 21.575290021268003 3.493549415271963 6.361109362927033e-15 1.590277340731758e-15 -3.1805546814635164e-15 -0.1542270159663279 5.834269569359335 -3.376861017746624 -2.887498985720517 -1.8459353171123857e-06 -6.148473116851761e-07 7.5056679113645846 -24.08491653683561 2.687678432282625 -53.35312724896412 -6.1485567476969445 62.58868495083859 -58.44648281022214 1.5658001618013516e-06 -3.1001800776163693e-07 -6.3611093629270335e-15 3.531125038440127e-31 -6.3611093629270335e-15 6.946765213595509 -12.669187858775947 -59.196114414608495 45.70402244078543 2.580272771484899e-07 1.1520461108106539e-06 1.5902773407317584e-15 0.0 0.0
0.0003283420519437641 81.04885864257812 -0.0011284661013633013 -73.17774542621358 -33.87020892717285 -90.30122203876508 1.2344133861759645 -33.911539044992885 10.882266613737135 3.831863867607409 23.641040246144314 -4.606981068884196 -6.361109362927033e-15 6.361109362927033e-15 3.531125038440127e-31 1.0704573864956146 -29.942490460472246 -2.1458261385141366 -1.7621590589897036 22.240570339588928 4.2942129384360745 -3.1805546814635168e-15 0.0 0.0 -0.1987949859827583 6.1404133356297805 -3.0343561392730427 -2.807123935495974 1.4297375634101882e-06 -1.4307768646166007e-06 6.269817401120203 -24.112578843231944 1.6825284008542993 -54.058220675259115 -7.525282558238589 60.90764257688682 -61.64776383178155 -1.2119215379968687e-06 -2.0352470900582076e-06 6.3611093629270335e-15 0.0 0.0 6.009473740517078 -14.371252370722189 -57.826874015033795 47.799374309285206 3.9931713310925456e-06 1.6289576985016327e-06 2.3854160110976368e-15 -1.590277340731758e-15 -3.180554681463516e-15
0.0003083057818002999 81.04905700683594 -0.0012128545204177499 -72.17973742176132 -32.5391142421864 -90.39749941951077 1.4818325834511787 -35.31733859223099 12.19371650120627 4.3189007542994 23.905406277028177 -5.153652844412334 3.1805546814635168e-15 0.0 0.0 1.2308036138290792 -30.22101302189148 -0.9833064816062698 -1.3446290792251154 21.325056219049067 2.579363516094341 -3.1805546814635176e-15 1.7655625192200634e-31 -6.361109362927035e-15 -0.2439713354638164 6.617456164164928 -2.7088938628801373 -3.177095308819128 -2.7337311767264826e-06 -1.6710251878644316e-06 7.6070085348740095 -24.155092557660467 1.2974212460286945 -53.82634894282259 -10.228179519535887 59.44561438862357 -63.771081174672176 4.7170820008266334e-07 1.559334131146381e-07 0.0 0.0 0.0 7.08227365183977 -17.92399269321919 -56.289137969823145 46.82717000154665 -3.761948419239856e-07 2.207938537086352e-06 -7.951386703658792e-16 2.2069531490250793e-32 -3.1805546814635168e-15
0.00032524694688618183 81.04938507080078 -0.0012605527881532907 -70.99427112430303 -30.62942361774451 -90.33406081536894 2.0316017653546417 -37.26606139924217 13.260431740328588 4.48499603366181 24.091932660962897 -5.725296271392116 0.0 0.0 0.0 1.632788672333112 -31.238886646017253 -0.4379328353563235 -1.3634679873953883 20.728150417187226 1.516436091691781 3.1805546814635164e-15 -1.590277340731758e-15 3.1805546814635164e-15 -0.3545743125855759 7.531744980411955 -2.407412348041843 -2.4177369328029923 9.603481097261122e-08 2.7194381360496004e-07 8.063782759032545 -24.98926894545065 0.7366831804470587 -54.81190349786352 -13.406143326200445 56.2778350327331 -65.65887723222464 -2.4976893075585523e-06 -2.4117026594547937e-06 0.0 0.0 0.0 6.578315991266393 -22.344713226437012 -55.779402753436976 48.01319885082294 -2.677254119181081e-06 -7.674448594920393e-07 -2.3854160110976368e-15 2.3854160110976368e-15 3.180554681463516e-15
0.0004090063157491386 81.04971313476562 -0.0012780623510479927 -69.39222533951329 -28.61019093676535 -90.78414270683854 3.2979481405268563 -40.19101972886261 15.493915714381265 4.811073927660763 24.54910469058234 -7.237605593703788 6.3611093629270335e-15 0.0 0.0 2.6365798608628452 -33.88840786113416 0.9320481625691447 -1.49779446755237 21.457320470827344 -0.14666254120703912 -6.361109362927033e-15 6.361109362927033e-15 3.531125038440127e-31 -0.5586018485256028 8.12189808432515 -1.7862602274593615 -1.7386450012068155 5.246191372649883e-07 2.279756654390159e-06 9.201503502267913 -25.528276785374484 1.9814194908852574 -55.566191170960906 -15.946983924426846 52.73548135018106 -69.60883983960241 3.3402044463514776e-06 1.063700042429394e-06 0.0 0.0 0.0 10.058497834805513 -26.459401208844184 -52.75893158815623 47.99069434042431 -1.2310285846844855e-06 9.82314722542806e-07 -3.1805546814635168e-15 0.0 0.0
0.0005218941369093955 81.05006408691406 -0.0013097069459035993 -67.62722217216024 -27.028984929619686 -90.65557652112491 4.344643254957927 -42.77178224720891 17.68408799964576 5.291745590679265 24.74416886706056 -10.10324785776617 3.1805546814635176e-15 3.1805546814635176e-15 -3.1805546814635176e-15 3.426719143480461 -35.99923774094379 2.6706067974856036 -1.2582255666540048 21.66368457748479 -2.546789930893465 3.1805546814635168e-15 -3.1805546814635168e-15 6.3611093629270335e-15 -0.7273973355228294 8.789213017503734 -1.9751145464987487 -1.2995288070496598 -9.860279881328241e-07 -1.3813281420733707e-06 8.64003186157393 -27.262428360080815 2.060920910669375 -55.962665443892604 -19.847559606039127 51.1626330602069 -71.80090001501073 3.3081074868763843e-06 1.1128883706463386e-07 3.1805546814635168e-15 -8.827812596100317e-32 -3.1805546814635168e-15 9.426602914741744 -31.41029900771006 -52.009573058567405 48.658298311172594 -5.04516652767754e-06 2.3326929176054064e-06 -1.5902773407317584e-15 4.4139062980501586e-32 -3.1805546814635168e-15
